<mxfile host="Electron" modified="2023-08-11T05:08:30.580Z" agent="Mozilla/5.0 (Windows NT 10.0; Win64; x64) AppleWebKit/537.36 (KHTML, like Gecko) draw.io/21.6.1 Chrome/112.0.5615.204 Electron/24.6.1 Safari/537.36" etag="QO58LgCwvTJ5HPIIpXDk" version="21.6.1" type="device">
  <diagram name="페이지-1" id="1V1hIyzYWLw6n8yJ7-vo">
    <mxGraphModel dx="2182" dy="1262" grid="1" gridSize="10" guides="1" tooltips="1" connect="1" arrows="1" fold="1" page="1" pageScale="1" pageWidth="827" pageHeight="1169" math="0" shadow="0">
      <root>
        <mxCell id="0" />
        <mxCell id="1" parent="0" />
        <mxCell id="tCUpVD0nMmIW89mL0y8f-20" value="false" style="edgeStyle=orthogonalEdgeStyle;rounded=0;orthogonalLoop=1;jettySize=auto;html=1;" parent="1" source="tCUpVD0nMmIW89mL0y8f-1" edge="1">
          <mxGeometry relative="1" as="geometry">
            <mxPoint x="550" y="340.0000000000001" as="targetPoint" />
          </mxGeometry>
        </mxCell>
        <mxCell id="tCUpVD0nMmIW89mL0y8f-21" value="true" style="edgeStyle=orthogonalEdgeStyle;rounded=0;orthogonalLoop=1;jettySize=auto;html=1;entryX=0.5;entryY=0;entryDx=0;entryDy=0;" parent="1" target="tCUpVD0nMmIW89mL0y8f-63" edge="1">
          <mxGeometry relative="1" as="geometry">
            <mxPoint x="440.0000000000002" y="480" as="targetPoint" />
            <mxPoint x="439.66" y="370.0000000000001" as="sourcePoint" />
          </mxGeometry>
        </mxCell>
        <mxCell id="tCUpVD0nMmIW89mL0y8f-1" value="리스트 != NULL" style="rhombus;whiteSpace=wrap;html=1;" parent="1" vertex="1">
          <mxGeometry x="382.5" y="310" width="115" height="60" as="geometry" />
        </mxCell>
        <mxCell id="tCUpVD0nMmIW89mL0y8f-14" style="edgeStyle=orthogonalEdgeStyle;rounded=0;orthogonalLoop=1;jettySize=auto;html=1;" parent="1" source="tCUpVD0nMmIW89mL0y8f-2" target="tCUpVD0nMmIW89mL0y8f-13" edge="1">
          <mxGeometry relative="1" as="geometry" />
        </mxCell>
        <mxCell id="tCUpVD0nMmIW89mL0y8f-2" value="start" style="rounded=1;whiteSpace=wrap;html=1;arcSize=50;fillColor=#ffe6cc;strokeColor=#d79b00;" parent="1" vertex="1">
          <mxGeometry x="400" y="80" width="80" height="30" as="geometry" />
        </mxCell>
        <mxCell id="tCUpVD0nMmIW89mL0y8f-3" value="입출력" style="shape=parallelogram;perimeter=parallelogramPerimeter;whiteSpace=wrap;html=1;fixedSize=1;size=10;" parent="1" vertex="1">
          <mxGeometry y="140" width="80" height="40" as="geometry" />
        </mxCell>
        <mxCell id="tCUpVD0nMmIW89mL0y8f-4" value="화면에출력" style="shape=document;whiteSpace=wrap;html=1;boundedLbl=1;" parent="1" vertex="1">
          <mxGeometry x="10" y="210" width="70" height="50" as="geometry" />
        </mxCell>
        <mxCell id="tCUpVD0nMmIW89mL0y8f-5" value="처리" style="rounded=0;whiteSpace=wrap;html=1;" parent="1" vertex="1">
          <mxGeometry x="5" y="280" width="90" height="60" as="geometry" />
        </mxCell>
        <mxCell id="tCUpVD0nMmIW89mL0y8f-7" value="서브루틴&lt;br&gt;(다른곳에서 명명된 함수같은거" style="shape=process;whiteSpace=wrap;html=1;backgroundOutline=1;" parent="1" vertex="1">
          <mxGeometry y="360" width="120" height="60" as="geometry" />
        </mxCell>
        <mxCell id="tCUpVD0nMmIW89mL0y8f-9" value="연결자(중간연결)" style="ellipse;whiteSpace=wrap;html=1;aspect=fixed;" parent="1" vertex="1">
          <mxGeometry x="10" y="440" width="80" height="80" as="geometry" />
        </mxCell>
        <mxCell id="tCUpVD0nMmIW89mL0y8f-12" value="준비/초기화&lt;br&gt;(init)" style="shape=hexagon;perimeter=hexagonPerimeter2;whiteSpace=wrap;html=1;fixedSize=1;" parent="1" vertex="1">
          <mxGeometry y="530" width="100" height="50" as="geometry" />
        </mxCell>
        <mxCell id="tCUpVD0nMmIW89mL0y8f-16" style="edgeStyle=orthogonalEdgeStyle;rounded=0;orthogonalLoop=1;jettySize=auto;html=1;entryX=0.5;entryY=0;entryDx=0;entryDy=0;" parent="1" source="tCUpVD0nMmIW89mL0y8f-13" target="tCUpVD0nMmIW89mL0y8f-15" edge="1">
          <mxGeometry relative="1" as="geometry" />
        </mxCell>
        <mxCell id="tCUpVD0nMmIW89mL0y8f-13" value="f_getls()" style="shape=process;whiteSpace=wrap;html=1;backgroundOutline=1;fillColor=#dae8fc;strokeColor=#6c8ebf;" parent="1" vertex="1">
          <mxGeometry x="400" y="150" width="80" height="20" as="geometry" />
        </mxCell>
        <mxCell id="tCUpVD0nMmIW89mL0y8f-19" style="edgeStyle=orthogonalEdgeStyle;rounded=0;orthogonalLoop=1;jettySize=auto;html=1;entryX=0.5;entryY=0;entryDx=0;entryDy=0;" parent="1" source="tCUpVD0nMmIW89mL0y8f-15" target="tCUpVD0nMmIW89mL0y8f-1" edge="1">
          <mxGeometry relative="1" as="geometry" />
        </mxCell>
        <mxCell id="tCUpVD0nMmIW89mL0y8f-15" value="거래할 종목 리스트" style="shape=parallelogram;perimeter=parallelogramPerimeter;whiteSpace=wrap;html=1;fixedSize=1;size=10;fillColor=#fff2cc;strokeColor=#d6b656;" parent="1" vertex="1">
          <mxGeometry x="400" y="230" width="80" height="40" as="geometry" />
        </mxCell>
        <mxCell id="tCUpVD0nMmIW89mL0y8f-18" style="edgeStyle=orthogonalEdgeStyle;rounded=0;orthogonalLoop=1;jettySize=auto;html=1;entryX=0;entryY=0.5;entryDx=0;entryDy=0;" parent="1" source="tCUpVD0nMmIW89mL0y8f-17" target="tCUpVD0nMmIW89mL0y8f-13" edge="1">
          <mxGeometry relative="1" as="geometry" />
        </mxCell>
        <mxCell id="tCUpVD0nMmIW89mL0y8f-17" value="Fdr lib" style="shape=parallelogram;perimeter=parallelogramPerimeter;whiteSpace=wrap;html=1;fixedSize=1;size=10;fillColor=#fff2cc;strokeColor=#d6b656;" parent="1" vertex="1">
          <mxGeometry x="250" y="140" width="80" height="40" as="geometry" />
        </mxCell>
        <mxCell id="tCUpVD0nMmIW89mL0y8f-24" style="edgeStyle=orthogonalEdgeStyle;rounded=0;orthogonalLoop=1;jettySize=auto;html=1;entryX=0.5;entryY=1;entryDx=0;entryDy=0;" parent="1" source="tCUpVD0nMmIW89mL0y8f-22" target="tCUpVD0nMmIW89mL0y8f-25" edge="1">
          <mxGeometry relative="1" as="geometry">
            <mxPoint x="590" y="180" as="targetPoint" />
          </mxGeometry>
        </mxCell>
        <mxCell id="tCUpVD0nMmIW89mL0y8f-22" value="&amp;nbsp;재실행" style="ellipse;whiteSpace=wrap;html=1;aspect=fixed;" parent="1" vertex="1">
          <mxGeometry x="550" y="300" width="80" height="80" as="geometry" />
        </mxCell>
        <mxCell id="tCUpVD0nMmIW89mL0y8f-26" style="edgeStyle=orthogonalEdgeStyle;rounded=0;orthogonalLoop=1;jettySize=auto;html=1;entryX=1;entryY=0.5;entryDx=0;entryDy=0;" parent="1" source="tCUpVD0nMmIW89mL0y8f-25" target="tCUpVD0nMmIW89mL0y8f-13" edge="1">
          <mxGeometry relative="1" as="geometry" />
        </mxCell>
        <mxCell id="tCUpVD0nMmIW89mL0y8f-25" value="" style="ellipse;whiteSpace=wrap;html=1;aspect=fixed;" parent="1" vertex="1">
          <mxGeometry x="585" y="155" width="10" height="10" as="geometry" />
        </mxCell>
        <mxCell id="tCUpVD0nMmIW89mL0y8f-46" value="false" style="edgeStyle=orthogonalEdgeStyle;rounded=0;orthogonalLoop=1;jettySize=auto;html=1;" parent="1" source="tCUpVD0nMmIW89mL0y8f-48" target="tCUpVD0nMmIW89mL0y8f-50" edge="1">
          <mxGeometry relative="1" as="geometry">
            <mxPoint x="160" y="775" as="targetPoint" />
          </mxGeometry>
        </mxCell>
        <mxCell id="tCUpVD0nMmIW89mL0y8f-47" value="true" style="edgeStyle=orthogonalEdgeStyle;rounded=0;orthogonalLoop=1;jettySize=auto;html=1;entryX=0.5;entryY=0;entryDx=0;entryDy=0;" parent="1" source="tCUpVD0nMmIW89mL0y8f-48" target="tCUpVD0nMmIW89mL0y8f-57" edge="1">
          <mxGeometry relative="1" as="geometry">
            <mxPoint x="70" y="925" as="targetPoint" />
            <Array as="points">
              <mxPoint x="90" y="708" />
              <mxPoint x="90" y="945" />
            </Array>
          </mxGeometry>
        </mxCell>
        <mxCell id="tCUpVD0nMmIW89mL0y8f-48" value="반복문" style="rhombus;whiteSpace=wrap;html=1;" parent="1" vertex="1">
          <mxGeometry x="120" y="680" width="80" height="55" as="geometry" />
        </mxCell>
        <mxCell id="tCUpVD0nMmIW89mL0y8f-49" style="edgeStyle=orthogonalEdgeStyle;rounded=0;orthogonalLoop=1;jettySize=auto;html=1;" parent="1" source="tCUpVD0nMmIW89mL0y8f-50" target="tCUpVD0nMmIW89mL0y8f-53" edge="1">
          <mxGeometry relative="1" as="geometry">
            <mxPoint x="160" y="865" as="targetPoint" />
          </mxGeometry>
        </mxCell>
        <mxCell id="tCUpVD0nMmIW89mL0y8f-50" value="처리" style="rounded=0;whiteSpace=wrap;html=1;" parent="1" vertex="1">
          <mxGeometry x="115" y="775" width="90" height="40" as="geometry" />
        </mxCell>
        <mxCell id="tCUpVD0nMmIW89mL0y8f-51" style="edgeStyle=orthogonalEdgeStyle;rounded=0;orthogonalLoop=1;jettySize=auto;html=1;entryX=0.5;entryY=1;entryDx=0;entryDy=0;" parent="1" source="tCUpVD0nMmIW89mL0y8f-53" target="tCUpVD0nMmIW89mL0y8f-55" edge="1">
          <mxGeometry relative="1" as="geometry">
            <mxPoint x="260.0000000000002" y="775" as="targetPoint" />
            <Array as="points">
              <mxPoint x="260" y="885" />
              <mxPoint x="260" y="713" />
            </Array>
          </mxGeometry>
        </mxCell>
        <mxCell id="tCUpVD0nMmIW89mL0y8f-52" style="edgeStyle=orthogonalEdgeStyle;rounded=0;orthogonalLoop=1;jettySize=auto;html=1;" parent="1" source="tCUpVD0nMmIW89mL0y8f-53" edge="1">
          <mxGeometry relative="1" as="geometry">
            <mxPoint x="160" y="1025" as="targetPoint" />
          </mxGeometry>
        </mxCell>
        <mxCell id="tCUpVD0nMmIW89mL0y8f-53" value="처리" style="rounded=0;whiteSpace=wrap;html=1;" parent="1" vertex="1">
          <mxGeometry x="115" y="865" width="90" height="40" as="geometry" />
        </mxCell>
        <mxCell id="tCUpVD0nMmIW89mL0y8f-54" style="edgeStyle=orthogonalEdgeStyle;rounded=0;orthogonalLoop=1;jettySize=auto;html=1;entryX=1;entryY=0.5;entryDx=0;entryDy=0;" parent="1" source="tCUpVD0nMmIW89mL0y8f-55" target="tCUpVD0nMmIW89mL0y8f-48" edge="1">
          <mxGeometry relative="1" as="geometry" />
        </mxCell>
        <mxCell id="tCUpVD0nMmIW89mL0y8f-55" value="" style="ellipse;whiteSpace=wrap;html=1;aspect=fixed;" parent="1" vertex="1">
          <mxGeometry x="217.5" y="702.5" width="10" height="10" as="geometry" />
        </mxCell>
        <mxCell id="tCUpVD0nMmIW89mL0y8f-56" style="edgeStyle=orthogonalEdgeStyle;rounded=0;orthogonalLoop=1;jettySize=auto;html=1;" parent="1" source="tCUpVD0nMmIW89mL0y8f-57" edge="1">
          <mxGeometry relative="1" as="geometry">
            <mxPoint x="160" y="950" as="targetPoint" />
          </mxGeometry>
        </mxCell>
        <mxCell id="tCUpVD0nMmIW89mL0y8f-57" value="" style="ellipse;whiteSpace=wrap;html=1;aspect=fixed;" parent="1" vertex="1">
          <mxGeometry x="70" y="945" width="10" height="10" as="geometry" />
        </mxCell>
        <mxCell id="tCUpVD0nMmIW89mL0y8f-63" value="" style="swimlane;startSize=0;" parent="1" vertex="1">
          <mxGeometry x="340" y="480" width="200" height="200" as="geometry" />
        </mxCell>
        <mxCell id="tCUpVD0nMmIW89mL0y8f-66" style="edgeStyle=orthogonalEdgeStyle;rounded=0;orthogonalLoop=1;jettySize=auto;html=1;entryX=0.5;entryY=0;entryDx=0;entryDy=0;" parent="tCUpVD0nMmIW89mL0y8f-63" source="tCUpVD0nMmIW89mL0y8f-64" target="tCUpVD0nMmIW89mL0y8f-65" edge="1">
          <mxGeometry relative="1" as="geometry" />
        </mxCell>
        <mxCell id="tCUpVD0nMmIW89mL0y8f-64" value="for each in range(종목리스트)" style="rounded=0;whiteSpace=wrap;html=1;fillColor=#d5e8d4;strokeColor=#82b366;" parent="tCUpVD0nMmIW89mL0y8f-63" vertex="1">
          <mxGeometry width="200" height="60" as="geometry" />
        </mxCell>
        <mxCell id="tCUpVD0nMmIW89mL0y8f-67" style="edgeStyle=orthogonalEdgeStyle;rounded=0;orthogonalLoop=1;jettySize=auto;html=1;" parent="tCUpVD0nMmIW89mL0y8f-63" source="tCUpVD0nMmIW89mL0y8f-65" edge="1">
          <mxGeometry relative="1" as="geometry">
            <mxPoint x="100" y="290" as="targetPoint" />
          </mxGeometry>
        </mxCell>
        <mxCell id="tCUpVD0nMmIW89mL0y8f-65" value="처리" style="rounded=0;whiteSpace=wrap;html=1;" parent="tCUpVD0nMmIW89mL0y8f-63" vertex="1">
          <mxGeometry x="20" y="80" width="160" height="100" as="geometry" />
        </mxCell>
        <mxCell id="tCUpVD0nMmIW89mL0y8f-77" value="`" style="swimlane;startSize=0;" parent="1" vertex="1">
          <mxGeometry x="300" y="870" width="390" height="330" as="geometry" />
        </mxCell>
        <mxCell id="tCUpVD0nMmIW89mL0y8f-78" style="edgeStyle=orthogonalEdgeStyle;rounded=0;orthogonalLoop=1;jettySize=auto;html=1;" parent="tCUpVD0nMmIW89mL0y8f-77" source="tCUpVD0nMmIW89mL0y8f-86" target="tCUpVD0nMmIW89mL0y8f-84" edge="1">
          <mxGeometry relative="1" as="geometry">
            <mxPoint x="100" y="80" as="targetPoint" />
          </mxGeometry>
        </mxCell>
        <mxCell id="tCUpVD0nMmIW89mL0y8f-79" value="for (종목리스트)" style="rounded=0;whiteSpace=wrap;html=1;fillColor=#d5e8d4;strokeColor=#82b366;" parent="tCUpVD0nMmIW89mL0y8f-77" vertex="1">
          <mxGeometry width="200" height="60" as="geometry" />
        </mxCell>
        <mxCell id="tCUpVD0nMmIW89mL0y8f-89" style="edgeStyle=orthogonalEdgeStyle;rounded=0;orthogonalLoop=1;jettySize=auto;html=1;entryX=0.5;entryY=0;entryDx=0;entryDy=0;" parent="tCUpVD0nMmIW89mL0y8f-77" source="tCUpVD0nMmIW89mL0y8f-84" target="tCUpVD0nMmIW89mL0y8f-90" edge="1">
          <mxGeometry relative="1" as="geometry">
            <mxPoint x="100" y="280" as="targetPoint" />
            <Array as="points" />
          </mxGeometry>
        </mxCell>
        <mxCell id="tCUpVD0nMmIW89mL0y8f-84" value="f_gethoga()" style="shape=process;whiteSpace=wrap;html=1;backgroundOutline=1;fillColor=#dae8fc;strokeColor=#6c8ebf;" parent="tCUpVD0nMmIW89mL0y8f-77" vertex="1">
          <mxGeometry x="25" y="160" width="150" height="90" as="geometry" />
        </mxCell>
        <mxCell id="tCUpVD0nMmIW89mL0y8f-86" value="종목 하나" style="shape=parallelogram;perimeter=parallelogramPerimeter;whiteSpace=wrap;html=1;fixedSize=1;size=10;fillColor=#fff2cc;strokeColor=#d6b656;" parent="tCUpVD0nMmIW89mL0y8f-77" vertex="1">
          <mxGeometry x="60" y="80" width="80" height="40" as="geometry" />
        </mxCell>
        <mxCell id="tCUpVD0nMmIW89mL0y8f-87" value="" style="edgeStyle=orthogonalEdgeStyle;rounded=0;orthogonalLoop=1;jettySize=auto;html=1;" parent="tCUpVD0nMmIW89mL0y8f-77" source="tCUpVD0nMmIW89mL0y8f-79" target="tCUpVD0nMmIW89mL0y8f-86" edge="1">
          <mxGeometry relative="1" as="geometry">
            <mxPoint x="1100" y="390" as="sourcePoint" />
            <mxPoint x="1100" y="500" as="targetPoint" />
          </mxGeometry>
        </mxCell>
        <mxCell id="tCUpVD0nMmIW89mL0y8f-90" value="" style="shape=parallelogram;perimeter=parallelogramPerimeter;whiteSpace=wrap;html=1;fixedSize=1;size=10;fillColor=#fff2cc;strokeColor=#d6b656;" parent="tCUpVD0nMmIW89mL0y8f-77" vertex="1">
          <mxGeometry x="60" y="285" width="80" height="40" as="geometry" />
        </mxCell>
        <mxCell id="tCUpVD0nMmIW89mL0y8f-120" style="edgeStyle=orthogonalEdgeStyle;rounded=0;orthogonalLoop=1;jettySize=auto;html=1;entryX=0.5;entryY=0;entryDx=0;entryDy=0;" parent="1" source="tCUpVD0nMmIW89mL0y8f-121" target="tCUpVD0nMmIW89mL0y8f-126" edge="1">
          <mxGeometry relative="1" as="geometry" />
        </mxCell>
        <mxCell id="tCUpVD0nMmIW89mL0y8f-121" value="start" style="rounded=1;whiteSpace=wrap;html=1;arcSize=50;fillColor=#ffe6cc;strokeColor=#d79b00;" parent="1" vertex="1">
          <mxGeometry x="1460" y="25" width="80" height="30" as="geometry" />
        </mxCell>
        <mxCell id="tCUpVD0nMmIW89mL0y8f-122" style="edgeStyle=orthogonalEdgeStyle;rounded=0;orthogonalLoop=1;jettySize=auto;html=1;entryX=0;entryY=0.5;entryDx=0;entryDy=0;" parent="1" source="tCUpVD0nMmIW89mL0y8f-123" edge="1">
          <mxGeometry relative="1" as="geometry">
            <mxPoint x="1460" y="100" as="targetPoint" />
          </mxGeometry>
        </mxCell>
        <mxCell id="tCUpVD0nMmIW89mL0y8f-123" value="Fdr lib" style="shape=parallelogram;perimeter=parallelogramPerimeter;whiteSpace=wrap;html=1;fixedSize=1;size=10;fillColor=#fff2cc;strokeColor=#d6b656;" parent="1" vertex="1">
          <mxGeometry x="1310" y="80" width="80" height="40" as="geometry" />
        </mxCell>
        <mxCell id="tCUpVD0nMmIW89mL0y8f-124" value="" style="edgeStyle=orthogonalEdgeStyle;rounded=0;orthogonalLoop=1;jettySize=auto;html=1;exitX=0;exitY=0.5;exitDx=0;exitDy=0;" parent="1" source="tCUpVD0nMmIW89mL0y8f-126" target="tCUpVD0nMmIW89mL0y8f-123" edge="1">
          <mxGeometry relative="1" as="geometry" />
        </mxCell>
        <mxCell id="tCUpVD0nMmIW89mL0y8f-125" style="edgeStyle=orthogonalEdgeStyle;rounded=0;orthogonalLoop=1;jettySize=auto;html=1;entryX=0.5;entryY=0;entryDx=0;entryDy=0;" parent="1" source="tCUpVD0nMmIW89mL0y8f-126" target="tCUpVD0nMmIW89mL0y8f-128" edge="1">
          <mxGeometry relative="1" as="geometry" />
        </mxCell>
        <mxCell id="tCUpVD0nMmIW89mL0y8f-126" value="f_getls()" style="shape=process;whiteSpace=wrap;html=1;backgroundOutline=1;fillColor=#dae8fc;strokeColor=#6c8ebf;" parent="1" vertex="1">
          <mxGeometry x="1460" y="90" width="80" height="20" as="geometry" />
        </mxCell>
        <mxCell id="tCUpVD0nMmIW89mL0y8f-127" style="edgeStyle=orthogonalEdgeStyle;rounded=0;orthogonalLoop=1;jettySize=auto;html=1;" parent="1" source="tCUpVD0nMmIW89mL0y8f-128" edge="1">
          <mxGeometry relative="1" as="geometry">
            <mxPoint x="1500" y="230" as="targetPoint" />
          </mxGeometry>
        </mxCell>
        <mxCell id="tCUpVD0nMmIW89mL0y8f-128" value="거래할 종목 리스트" style="shape=parallelogram;perimeter=parallelogramPerimeter;whiteSpace=wrap;html=1;fixedSize=1;size=10;fillColor=#fff2cc;strokeColor=#d6b656;" parent="1" vertex="1">
          <mxGeometry x="1460" y="140" width="80" height="40" as="geometry" />
        </mxCell>
        <mxCell id="tCUpVD0nMmIW89mL0y8f-129" style="edgeStyle=orthogonalEdgeStyle;rounded=0;orthogonalLoop=1;jettySize=auto;html=1;entryX=0.5;entryY=0;entryDx=0;entryDy=0;" parent="1" source="tCUpVD0nMmIW89mL0y8f-130" target="tCUpVD0nMmIW89mL0y8f-132" edge="1">
          <mxGeometry relative="1" as="geometry" />
        </mxCell>
        <mxCell id="tCUpVD0nMmIW89mL0y8f-130" value="f_getHoga()" style="shape=process;whiteSpace=wrap;html=1;backgroundOutline=1;fillColor=#dae8fc;strokeColor=#6c8ebf;" parent="1" vertex="1">
          <mxGeometry x="1460" y="230" width="80" height="60" as="geometry" />
        </mxCell>
        <mxCell id="tCUpVD0nMmIW89mL0y8f-131" style="edgeStyle=orthogonalEdgeStyle;rounded=0;orthogonalLoop=1;jettySize=auto;html=1;" parent="1" source="tCUpVD0nMmIW89mL0y8f-132" edge="1">
          <mxGeometry relative="1" as="geometry">
            <mxPoint x="1500" y="420" as="targetPoint" />
          </mxGeometry>
        </mxCell>
        <mxCell id="tCUpVD0nMmIW89mL0y8f-132" value="종목별 호가리스트&lt;br&gt;(2차원 배열)" style="shape=parallelogram;perimeter=parallelogramPerimeter;whiteSpace=wrap;html=1;fixedSize=1;size=10;fillColor=#fff2cc;strokeColor=#d6b656;" parent="1" vertex="1">
          <mxGeometry x="1440" y="320" width="120" height="40" as="geometry" />
        </mxCell>
        <mxCell id="tCUpVD0nMmIW89mL0y8f-135" value="true" style="edgeStyle=orthogonalEdgeStyle;rounded=0;orthogonalLoop=1;jettySize=auto;html=1;" parent="1" source="tCUpVD0nMmIW89mL0y8f-133" target="tCUpVD0nMmIW89mL0y8f-134" edge="1">
          <mxGeometry relative="1" as="geometry" />
        </mxCell>
        <mxCell id="tCUpVD0nMmIW89mL0y8f-140" value="false" style="edgeStyle=orthogonalEdgeStyle;rounded=0;orthogonalLoop=1;jettySize=auto;html=1;" parent="1" source="tCUpVD0nMmIW89mL0y8f-133" edge="1">
          <mxGeometry relative="1" as="geometry">
            <mxPoint x="1500" y="560" as="targetPoint" />
          </mxGeometry>
        </mxCell>
        <mxCell id="tCUpVD0nMmIW89mL0y8f-133" value="종목별&lt;br&gt;호가리스트&lt;br&gt;==&lt;br&gt;NULL" style="rhombus;whiteSpace=wrap;html=1;" parent="1" vertex="1">
          <mxGeometry x="1442.5" y="400" width="115" height="100" as="geometry" />
        </mxCell>
        <mxCell id="tCUpVD0nMmIW89mL0y8f-136" style="edgeStyle=orthogonalEdgeStyle;rounded=0;orthogonalLoop=1;jettySize=auto;html=1;" parent="1" source="tCUpVD0nMmIW89mL0y8f-137" edge="1">
          <mxGeometry relative="1" as="geometry">
            <mxPoint x="1661.5" y="260" as="targetPoint" />
          </mxGeometry>
        </mxCell>
        <mxCell id="tCUpVD0nMmIW89mL0y8f-134" value="" style="ellipse;whiteSpace=wrap;html=1;" parent="1" vertex="1">
          <mxGeometry x="1654" y="445" width="15" height="10" as="geometry" />
        </mxCell>
        <mxCell id="tCUpVD0nMmIW89mL0y8f-138" value="" style="edgeStyle=orthogonalEdgeStyle;rounded=0;orthogonalLoop=1;jettySize=auto;html=1;" parent="1" source="tCUpVD0nMmIW89mL0y8f-134" target="tCUpVD0nMmIW89mL0y8f-137" edge="1">
          <mxGeometry relative="1" as="geometry">
            <mxPoint x="1661.5" y="260" as="targetPoint" />
            <mxPoint x="1662" y="445" as="sourcePoint" />
          </mxGeometry>
        </mxCell>
        <mxCell id="tCUpVD0nMmIW89mL0y8f-139" value="" style="edgeStyle=orthogonalEdgeStyle;rounded=0;orthogonalLoop=1;jettySize=auto;html=1;entryX=0.99;entryY=0.388;entryDx=0;entryDy=0;entryPerimeter=0;" parent="1" source="tCUpVD0nMmIW89mL0y8f-137" target="tCUpVD0nMmIW89mL0y8f-130" edge="1">
          <mxGeometry relative="1" as="geometry" />
        </mxCell>
        <mxCell id="tCUpVD0nMmIW89mL0y8f-137" value="" style="ellipse;whiteSpace=wrap;html=1;" parent="1" vertex="1">
          <mxGeometry x="1654" y="250" width="15" height="10" as="geometry" />
        </mxCell>
        <mxCell id="tCUpVD0nMmIW89mL0y8f-154" value="`" style="swimlane;startSize=0;" parent="1" vertex="1">
          <mxGeometry x="1328" y="560" width="390" height="330" as="geometry" />
        </mxCell>
        <mxCell id="tCUpVD0nMmIW89mL0y8f-155" style="edgeStyle=orthogonalEdgeStyle;rounded=0;orthogonalLoop=1;jettySize=auto;html=1;" parent="tCUpVD0nMmIW89mL0y8f-154" source="tCUpVD0nMmIW89mL0y8f-159" target="tCUpVD0nMmIW89mL0y8f-158" edge="1">
          <mxGeometry relative="1" as="geometry">
            <mxPoint x="100" y="80" as="targetPoint" />
          </mxGeometry>
        </mxCell>
        <mxCell id="tCUpVD0nMmIW89mL0y8f-156" value="for (종목리스트)" style="rounded=0;whiteSpace=wrap;html=1;fillColor=#d5e8d4;strokeColor=#82b366;" parent="tCUpVD0nMmIW89mL0y8f-154" vertex="1">
          <mxGeometry width="200" height="60" as="geometry" />
        </mxCell>
        <mxCell id="tCUpVD0nMmIW89mL0y8f-157" style="edgeStyle=orthogonalEdgeStyle;rounded=0;orthogonalLoop=1;jettySize=auto;html=1;entryX=0.5;entryY=0;entryDx=0;entryDy=0;" parent="tCUpVD0nMmIW89mL0y8f-154" source="tCUpVD0nMmIW89mL0y8f-158" target="tCUpVD0nMmIW89mL0y8f-163" edge="1">
          <mxGeometry relative="1" as="geometry" />
        </mxCell>
        <mxCell id="tCUpVD0nMmIW89mL0y8f-158" value="f_decision" style="shape=process;whiteSpace=wrap;html=1;backgroundOutline=1;fillColor=#dae8fc;strokeColor=#6c8ebf;" parent="tCUpVD0nMmIW89mL0y8f-154" vertex="1">
          <mxGeometry x="25" y="150" width="150" height="90" as="geometry" />
        </mxCell>
        <mxCell id="tCUpVD0nMmIW89mL0y8f-159" value="종목 하나&lt;br&gt;호가리스트" style="shape=parallelogram;perimeter=parallelogramPerimeter;whiteSpace=wrap;html=1;fixedSize=1;size=10;fillColor=#fff2cc;strokeColor=#d6b656;" parent="tCUpVD0nMmIW89mL0y8f-154" vertex="1">
          <mxGeometry x="60" y="80" width="80" height="40" as="geometry" />
        </mxCell>
        <mxCell id="tCUpVD0nMmIW89mL0y8f-160" value="" style="edgeStyle=orthogonalEdgeStyle;rounded=0;orthogonalLoop=1;jettySize=auto;html=1;" parent="tCUpVD0nMmIW89mL0y8f-154" source="tCUpVD0nMmIW89mL0y8f-156" target="tCUpVD0nMmIW89mL0y8f-159" edge="1">
          <mxGeometry relative="1" as="geometry">
            <mxPoint x="1100" y="390" as="sourcePoint" />
            <mxPoint x="1100" y="500" as="targetPoint" />
          </mxGeometry>
        </mxCell>
        <mxCell id="tCUpVD0nMmIW89mL0y8f-161" value="true" style="edgeStyle=orthogonalEdgeStyle;rounded=0;orthogonalLoop=1;jettySize=auto;html=1;" parent="tCUpVD0nMmIW89mL0y8f-154" source="tCUpVD0nMmIW89mL0y8f-163" target="tCUpVD0nMmIW89mL0y8f-164" edge="1">
          <mxGeometry relative="1" as="geometry" />
        </mxCell>
        <mxCell id="tCUpVD0nMmIW89mL0y8f-163" value="rsult" style="rhombus;whiteSpace=wrap;html=1;" parent="tCUpVD0nMmIW89mL0y8f-154" vertex="1">
          <mxGeometry x="42.5" y="260" width="115" height="60" as="geometry" />
        </mxCell>
        <mxCell id="tCUpVD0nMmIW89mL0y8f-164" value="f_buy" style="shape=process;whiteSpace=wrap;html=1;backgroundOutline=1;fillColor=#dae8fc;strokeColor=#6c8ebf;" parent="tCUpVD0nMmIW89mL0y8f-154" vertex="1">
          <mxGeometry x="195" y="260" width="120" height="60" as="geometry" />
        </mxCell>
        <mxCell id="tCUpVD0nMmIW89mL0y8f-165" style="edgeStyle=orthogonalEdgeStyle;rounded=0;orthogonalLoop=1;jettySize=auto;html=1;" parent="1" source="tCUpVD0nMmIW89mL0y8f-166" edge="1">
          <mxGeometry relative="1" as="geometry">
            <mxPoint x="1263" y="600" as="targetPoint" />
          </mxGeometry>
        </mxCell>
        <mxCell id="tCUpVD0nMmIW89mL0y8f-166" value="" style="ellipse;whiteSpace=wrap;html=1;aspect=fixed;" parent="1" vertex="1">
          <mxGeometry x="1413" y="1010" width="30" height="30" as="geometry" />
        </mxCell>
        <mxCell id="tCUpVD0nMmIW89mL0y8f-167" value="" style="edgeStyle=orthogonalEdgeStyle;rounded=0;orthogonalLoop=1;jettySize=auto;html=1;entryX=0.012;entryY=0.406;entryDx=0;entryDy=0;entryPerimeter=0;" parent="1" source="tCUpVD0nMmIW89mL0y8f-168" target="tCUpVD0nMmIW89mL0y8f-156" edge="1">
          <mxGeometry relative="1" as="geometry" />
        </mxCell>
        <mxCell id="tCUpVD0nMmIW89mL0y8f-168" value="" style="ellipse;whiteSpace=wrap;html=1;aspect=fixed;" parent="1" vertex="1">
          <mxGeometry x="1250" y="570" width="30" height="30" as="geometry" />
        </mxCell>
        <mxCell id="tCUpVD0nMmIW89mL0y8f-162" value="false" style="edgeStyle=orthogonalEdgeStyle;rounded=0;orthogonalLoop=1;jettySize=auto;html=1;entryX=0.5;entryY=0;entryDx=0;entryDy=0;" parent="1" source="tCUpVD0nMmIW89mL0y8f-163" target="tCUpVD0nMmIW89mL0y8f-166" edge="1">
          <mxGeometry relative="1" as="geometry">
            <mxPoint x="1428" y="940" as="targetPoint" />
            <Array as="points">
              <mxPoint x="1428" y="910" />
              <mxPoint x="1429" y="910" />
              <mxPoint x="1429" y="950" />
              <mxPoint x="1427" y="950" />
            </Array>
          </mxGeometry>
        </mxCell>
        <mxCell id="sMFrb6Sxw22Ko-RmrcBn-1" value="장 열려서&lt;br&gt;호가 받아올때까지 반복&lt;br&gt;" style="rounded=0;whiteSpace=wrap;html=1;" vertex="1" parent="1">
          <mxGeometry x="1570" y="300" width="60" height="90" as="geometry" />
        </mxCell>
        <mxCell id="sMFrb6Sxw22Ko-RmrcBn-4" value="bot_worker" style="swimlane;whiteSpace=wrap;html=1;" vertex="1" parent="1">
          <mxGeometry x="700" y="1820" width="350" height="330" as="geometry" />
        </mxCell>
        <mxCell id="sMFrb6Sxw22Ko-RmrcBn-7" value="order" style="shape=process;whiteSpace=wrap;html=1;backgroundOutline=1;" vertex="1" parent="1">
          <mxGeometry x="1260" y="2150" width="82" height="30" as="geometry" />
        </mxCell>
        <mxCell id="sMFrb6Sxw22Ko-RmrcBn-11" style="edgeStyle=orthogonalEdgeStyle;rounded=0;orthogonalLoop=1;jettySize=auto;html=1;" edge="1" parent="1" source="sMFrb6Sxw22Ko-RmrcBn-8" target="sMFrb6Sxw22Ko-RmrcBn-10">
          <mxGeometry relative="1" as="geometry" />
        </mxCell>
        <mxCell id="sMFrb6Sxw22Ko-RmrcBn-8" value="start" style="rounded=1;whiteSpace=wrap;html=1;arcSize=50;fillColor=#ffe6cc;strokeColor=#d79b00;" vertex="1" parent="1">
          <mxGeometry x="2060" y="280" width="50" height="30" as="geometry" />
        </mxCell>
        <mxCell id="sMFrb6Sxw22Ko-RmrcBn-9" style="edgeStyle=orthogonalEdgeStyle;rounded=0;orthogonalLoop=1;jettySize=auto;html=1;exitX=0.25;exitY=1;exitDx=0;exitDy=0;entryX=0.253;entryY=0.5;entryDx=0;entryDy=0;entryPerimeter=0;" edge="1" parent="1" source="tCUpVD0nMmIW89mL0y8f-126" target="tCUpVD0nMmIW89mL0y8f-126">
          <mxGeometry relative="1" as="geometry" />
        </mxCell>
        <mxCell id="sMFrb6Sxw22Ko-RmrcBn-15" value="" style="edgeStyle=orthogonalEdgeStyle;rounded=0;orthogonalLoop=1;jettySize=auto;html=1;" edge="1" parent="1" source="sMFrb6Sxw22Ko-RmrcBn-10" target="sMFrb6Sxw22Ko-RmrcBn-14">
          <mxGeometry relative="1" as="geometry" />
        </mxCell>
        <mxCell id="sMFrb6Sxw22Ko-RmrcBn-10" value="f_getls()`" style="shape=process;whiteSpace=wrap;html=1;backgroundOutline=1;fillColor=#dae8fc;strokeColor=#6c8ebf;" vertex="1" parent="1">
          <mxGeometry x="2140" y="285" width="56" height="20" as="geometry" />
        </mxCell>
        <mxCell id="sMFrb6Sxw22Ko-RmrcBn-13" value="kospi200" style="edgeStyle=orthogonalEdgeStyle;rounded=0;orthogonalLoop=1;jettySize=auto;html=1;entryX=0.5;entryY=0;entryDx=0;entryDy=0;" edge="1" parent="1" source="sMFrb6Sxw22Ko-RmrcBn-12" target="sMFrb6Sxw22Ko-RmrcBn-10">
          <mxGeometry relative="1" as="geometry">
            <mxPoint x="2180" y="240" as="sourcePoint" />
          </mxGeometry>
        </mxCell>
        <mxCell id="sMFrb6Sxw22Ko-RmrcBn-18" value="" style="edgeStyle=orthogonalEdgeStyle;rounded=0;orthogonalLoop=1;jettySize=auto;html=1;" edge="1" parent="1" source="sMFrb6Sxw22Ko-RmrcBn-14" target="sMFrb6Sxw22Ko-RmrcBn-17">
          <mxGeometry relative="1" as="geometry" />
        </mxCell>
        <mxCell id="sMFrb6Sxw22Ko-RmrcBn-14" value="추출한 종목 리스트&lt;br&gt;(3만원 이하 코스피&amp;nbsp;&lt;br&gt;상장주)" style="shape=parallelogram;perimeter=parallelogramPerimeter;whiteSpace=wrap;html=1;fixedSize=1;fillColor=#e1d5e7;strokeColor=#9673a6;" vertex="1" parent="1">
          <mxGeometry x="2210" y="265" width="120" height="60" as="geometry" />
        </mxCell>
        <mxCell id="sMFrb6Sxw22Ko-RmrcBn-30" value="false" style="edgeStyle=orthogonalEdgeStyle;rounded=0;orthogonalLoop=1;jettySize=auto;html=1;entryX=0;entryY=0.5;entryDx=0;entryDy=0;" edge="1" parent="1" source="sMFrb6Sxw22Ko-RmrcBn-22" target="sMFrb6Sxw22Ko-RmrcBn-31">
          <mxGeometry relative="1" as="geometry">
            <mxPoint x="2840" y="295" as="targetPoint" />
            <Array as="points">
              <mxPoint x="2790" y="295" />
              <mxPoint x="2790" y="213" />
            </Array>
          </mxGeometry>
        </mxCell>
        <mxCell id="sMFrb6Sxw22Ko-RmrcBn-29" value="for(종목리스트) - 예상 주가 뽑아오기" style="swimlane;whiteSpace=wrap;html=1;" vertex="1" parent="1">
          <mxGeometry x="2820" y="118" width="470" height="280" as="geometry" />
        </mxCell>
        <mxCell id="sMFrb6Sxw22Ko-RmrcBn-34" value="" style="edgeStyle=orthogonalEdgeStyle;rounded=0;orthogonalLoop=1;jettySize=auto;html=1;" edge="1" parent="sMFrb6Sxw22Ko-RmrcBn-29" source="sMFrb6Sxw22Ko-RmrcBn-31" target="sMFrb6Sxw22Ko-RmrcBn-33">
          <mxGeometry relative="1" as="geometry" />
        </mxCell>
        <mxCell id="sMFrb6Sxw22Ko-RmrcBn-31" value="종목 하나&lt;br&gt;호가리스트" style="shape=parallelogram;perimeter=parallelogramPerimeter;whiteSpace=wrap;html=1;fixedSize=1;size=10;fillColor=#e1d5e7;strokeColor=#9673a6;" vertex="1" parent="sMFrb6Sxw22Ko-RmrcBn-29">
          <mxGeometry x="10" y="75" width="80" height="40" as="geometry" />
        </mxCell>
        <mxCell id="sMFrb6Sxw22Ko-RmrcBn-36" style="edgeStyle=orthogonalEdgeStyle;rounded=0;orthogonalLoop=1;jettySize=auto;html=1;entryX=0;entryY=0.5;entryDx=0;entryDy=0;" edge="1" parent="sMFrb6Sxw22Ko-RmrcBn-29" source="sMFrb6Sxw22Ko-RmrcBn-33" target="sMFrb6Sxw22Ko-RmrcBn-35">
          <mxGeometry relative="1" as="geometry" />
        </mxCell>
        <mxCell id="sMFrb6Sxw22Ko-RmrcBn-33" value="f_pedictPrice" style="shape=process;whiteSpace=wrap;html=1;backgroundOutline=1;fillColor=#dae8fc;strokeColor=#6c8ebf;" vertex="1" parent="sMFrb6Sxw22Ko-RmrcBn-29">
          <mxGeometry x="105" y="80" width="80" height="30" as="geometry" />
        </mxCell>
        <mxCell id="sMFrb6Sxw22Ko-RmrcBn-38" value="0" style="edgeStyle=orthogonalEdgeStyle;rounded=0;orthogonalLoop=1;jettySize=auto;html=1;" edge="1" parent="sMFrb6Sxw22Ko-RmrcBn-29" source="sMFrb6Sxw22Ko-RmrcBn-35" target="sMFrb6Sxw22Ko-RmrcBn-37">
          <mxGeometry x="0.3309" relative="1" as="geometry">
            <mxPoint as="offset" />
          </mxGeometry>
        </mxCell>
        <mxCell id="sMFrb6Sxw22Ko-RmrcBn-40" value="예상주가," style="edgeStyle=orthogonalEdgeStyle;rounded=0;orthogonalLoop=1;jettySize=auto;html=1;" edge="1" parent="sMFrb6Sxw22Ko-RmrcBn-29" source="sMFrb6Sxw22Ko-RmrcBn-35">
          <mxGeometry x="0.0075" relative="1" as="geometry">
            <mxPoint x="350" y="95" as="targetPoint" />
            <mxPoint as="offset" />
          </mxGeometry>
        </mxCell>
        <mxCell id="sMFrb6Sxw22Ko-RmrcBn-54" style="edgeStyle=orthogonalEdgeStyle;rounded=0;orthogonalLoop=1;jettySize=auto;html=1;" edge="1" parent="sMFrb6Sxw22Ko-RmrcBn-29" source="sMFrb6Sxw22Ko-RmrcBn-35">
          <mxGeometry relative="1" as="geometry">
            <mxPoint x="320" y="150" as="targetPoint" />
            <Array as="points">
              <mxPoint x="280" y="150" />
              <mxPoint x="310" y="150" />
            </Array>
          </mxGeometry>
        </mxCell>
        <mxCell id="sMFrb6Sxw22Ko-RmrcBn-35" value="rsult" style="rhombus;whiteSpace=wrap;html=1;" vertex="1" parent="sMFrb6Sxw22Ko-RmrcBn-29">
          <mxGeometry x="210" y="72.5" width="70" height="45" as="geometry" />
        </mxCell>
        <mxCell id="sMFrb6Sxw22Ko-RmrcBn-39" style="edgeStyle=orthogonalEdgeStyle;rounded=0;orthogonalLoop=1;jettySize=auto;html=1;entryX=0.5;entryY=1;entryDx=0;entryDy=0;" edge="1" parent="sMFrb6Sxw22Ko-RmrcBn-29" source="sMFrb6Sxw22Ko-RmrcBn-37" target="sMFrb6Sxw22Ko-RmrcBn-31">
          <mxGeometry relative="1" as="geometry" />
        </mxCell>
        <mxCell id="sMFrb6Sxw22Ko-RmrcBn-37" value="skip" style="ellipse;whiteSpace=wrap;html=1;" vertex="1" parent="sMFrb6Sxw22Ko-RmrcBn-29">
          <mxGeometry x="220" y="170" width="50" height="40" as="geometry" />
        </mxCell>
        <mxCell id="sMFrb6Sxw22Ko-RmrcBn-50" style="edgeStyle=orthogonalEdgeStyle;rounded=0;orthogonalLoop=1;jettySize=auto;html=1;entryX=0.5;entryY=1;entryDx=0;entryDy=0;" edge="1" parent="sMFrb6Sxw22Ko-RmrcBn-29" source="sMFrb6Sxw22Ko-RmrcBn-47" target="sMFrb6Sxw22Ko-RmrcBn-31">
          <mxGeometry relative="1" as="geometry">
            <Array as="points">
              <mxPoint x="400" y="250" />
              <mxPoint x="30" y="250" />
              <mxPoint x="30" y="115" />
            </Array>
          </mxGeometry>
        </mxCell>
        <mxCell id="sMFrb6Sxw22Ko-RmrcBn-47" value="dict에 추가&lt;br&gt;(key: 종목코드&lt;br&gt;value: 예상주가)" style="strokeWidth=2;html=1;shape=mxgraph.flowchart.database;whiteSpace=wrap;fillColor=#e1d5e7;strokeColor=#9673a6;" vertex="1" parent="sMFrb6Sxw22Ko-RmrcBn-29">
          <mxGeometry x="350" y="57.5" width="100" height="75" as="geometry" />
        </mxCell>
        <mxCell id="sMFrb6Sxw22Ko-RmrcBn-55" value="dict.keys()" style="strokeWidth=2;html=1;shape=mxgraph.flowchart.database;whiteSpace=wrap;fillColor=#F3EDFA;strokeColor=#D2BEE6;" vertex="1" parent="sMFrb6Sxw22Ko-RmrcBn-29">
          <mxGeometry x="320" y="132.5" width="60" height="60" as="geometry" />
        </mxCell>
        <mxCell id="sMFrb6Sxw22Ko-RmrcBn-147" style="edgeStyle=orthogonalEdgeStyle;rounded=0;orthogonalLoop=1;jettySize=auto;html=1;exitX=0.5;exitY=1;exitDx=0;exitDy=0;exitPerimeter=0;" edge="1" parent="sMFrb6Sxw22Ko-RmrcBn-29" source="sMFrb6Sxw22Ko-RmrcBn-55" target="sMFrb6Sxw22Ko-RmrcBn-55">
          <mxGeometry relative="1" as="geometry" />
        </mxCell>
        <mxCell id="sMFrb6Sxw22Ko-RmrcBn-41" value="" style="edgeStyle=orthogonalEdgeStyle;rounded=0;orthogonalLoop=1;jettySize=auto;html=1;entryX=0.5;entryY=0;entryDx=0;entryDy=0;" edge="1" parent="1" target="sMFrb6Sxw22Ko-RmrcBn-12">
          <mxGeometry relative="1" as="geometry">
            <mxPoint x="2170" y="240" as="sourcePoint" />
            <mxPoint x="2170" y="285" as="targetPoint" />
          </mxGeometry>
        </mxCell>
        <mxCell id="sMFrb6Sxw22Ko-RmrcBn-12" value="Fdr lib" style="shape=parallelogram;perimeter=parallelogramPerimeter;whiteSpace=wrap;html=1;fixedSize=1;size=10;fillColor=#fff2cc;strokeColor=#d6b656;" vertex="1" parent="1">
          <mxGeometry x="2145" y="225" width="46" height="30" as="geometry" />
        </mxCell>
        <mxCell id="sMFrb6Sxw22Ko-RmrcBn-42" value="장 열리면 호가 가져오기" style="swimlane;whiteSpace=wrap;html=1;" vertex="1" parent="1">
          <mxGeometry x="2370" y="120" width="380" height="260" as="geometry" />
        </mxCell>
        <mxCell id="sMFrb6Sxw22Ko-RmrcBn-19" value="종목별 호가 리스트&lt;br&gt;(2차원 배열)" style="shape=parallelogram;perimeter=parallelogramPerimeter;whiteSpace=wrap;html=1;fixedSize=1;fillColor=#e1d5e7;strokeColor=#9673a6;" vertex="1" parent="sMFrb6Sxw22Ko-RmrcBn-42">
          <mxGeometry x="124" y="145" width="120" height="60" as="geometry" />
        </mxCell>
        <mxCell id="sMFrb6Sxw22Ko-RmrcBn-22" value="종목1호가[1]&lt;br&gt;==NULL&lt;br&gt;(장닫힘)" style="rhombus;whiteSpace=wrap;html=1;" vertex="1" parent="sMFrb6Sxw22Ko-RmrcBn-42">
          <mxGeometry x="274" y="130" width="100" height="90" as="geometry" />
        </mxCell>
        <mxCell id="sMFrb6Sxw22Ko-RmrcBn-23" value="" style="edgeStyle=orthogonalEdgeStyle;rounded=0;orthogonalLoop=1;jettySize=auto;html=1;" edge="1" parent="sMFrb6Sxw22Ko-RmrcBn-42" source="sMFrb6Sxw22Ko-RmrcBn-19" target="sMFrb6Sxw22Ko-RmrcBn-22">
          <mxGeometry relative="1" as="geometry" />
        </mxCell>
        <mxCell id="sMFrb6Sxw22Ko-RmrcBn-26" value="repeat" style="ellipse;whiteSpace=wrap;html=1;" vertex="1" parent="sMFrb6Sxw22Ko-RmrcBn-42">
          <mxGeometry x="299" y="60" width="50" height="35" as="geometry" />
        </mxCell>
        <mxCell id="sMFrb6Sxw22Ko-RmrcBn-27" value="true" style="edgeStyle=orthogonalEdgeStyle;rounded=0;orthogonalLoop=1;jettySize=auto;html=1;" edge="1" parent="sMFrb6Sxw22Ko-RmrcBn-42" source="sMFrb6Sxw22Ko-RmrcBn-22" target="sMFrb6Sxw22Ko-RmrcBn-26">
          <mxGeometry x="0.125" relative="1" as="geometry">
            <Array as="points">
              <mxPoint x="324" y="100" />
              <mxPoint x="324" y="100" />
            </Array>
            <mxPoint as="offset" />
          </mxGeometry>
        </mxCell>
        <mxCell id="sMFrb6Sxw22Ko-RmrcBn-17" value="f_getHoga" style="shape=process;whiteSpace=wrap;html=1;backgroundOutline=1;fillColor=#dae8fc;strokeColor=#6c8ebf;" vertex="1" parent="sMFrb6Sxw22Ko-RmrcBn-42">
          <mxGeometry x="5" y="145" width="90" height="60" as="geometry" />
        </mxCell>
        <mxCell id="sMFrb6Sxw22Ko-RmrcBn-20" value="" style="edgeStyle=orthogonalEdgeStyle;rounded=0;orthogonalLoop=1;jettySize=auto;html=1;" edge="1" parent="sMFrb6Sxw22Ko-RmrcBn-42" source="sMFrb6Sxw22Ko-RmrcBn-17" target="sMFrb6Sxw22Ko-RmrcBn-19">
          <mxGeometry relative="1" as="geometry" />
        </mxCell>
        <mxCell id="sMFrb6Sxw22Ko-RmrcBn-28" style="edgeStyle=orthogonalEdgeStyle;rounded=0;orthogonalLoop=1;jettySize=auto;html=1;entryX=0.5;entryY=0;entryDx=0;entryDy=0;" edge="1" parent="sMFrb6Sxw22Ko-RmrcBn-42" source="sMFrb6Sxw22Ko-RmrcBn-26" target="sMFrb6Sxw22Ko-RmrcBn-17">
          <mxGeometry relative="1" as="geometry" />
        </mxCell>
        <mxCell id="sMFrb6Sxw22Ko-RmrcBn-43" value="시작 -&amp;gt; 거래할 종목 추출" style="swimlane;whiteSpace=wrap;html=1;" vertex="1" parent="1">
          <mxGeometry x="2050" y="190" width="290" height="160" as="geometry" />
        </mxCell>
        <mxCell id="sMFrb6Sxw22Ko-RmrcBn-145" style="edgeStyle=orthogonalEdgeStyle;rounded=0;orthogonalLoop=1;jettySize=auto;html=1;entryX=0.5;entryY=1;entryDx=0;entryDy=0;" edge="1" parent="1" source="sMFrb6Sxw22Ko-RmrcBn-51" target="sMFrb6Sxw22Ko-RmrcBn-42">
          <mxGeometry relative="1" as="geometry">
            <Array as="points">
              <mxPoint x="3615" y="470" />
              <mxPoint x="2560" y="470" />
            </Array>
          </mxGeometry>
        </mxCell>
        <mxCell id="sMFrb6Sxw22Ko-RmrcBn-51" value="for each in dict.keys(): - 주문하기" style="swimlane;whiteSpace=wrap;html=1;" vertex="1" parent="1">
          <mxGeometry x="3350" y="118" width="530" height="280" as="geometry" />
        </mxCell>
        <mxCell id="sMFrb6Sxw22Ko-RmrcBn-97" value="Vertical Container" style="swimlane;whiteSpace=wrap;html=1;" vertex="1" parent="sMFrb6Sxw22Ko-RmrcBn-51">
          <mxGeometry x="10" y="30" width="250" height="200" as="geometry" />
        </mxCell>
        <mxCell id="sMFrb6Sxw22Ko-RmrcBn-98" value="each(종목코드)" style="shape=parallelogram;perimeter=parallelogramPerimeter;whiteSpace=wrap;html=1;fixedSize=1;size=10;fillColor=#fff2cc;strokeColor=#d6b656;" vertex="1" parent="sMFrb6Sxw22Ko-RmrcBn-97">
          <mxGeometry x="10" y="30" width="100" height="30" as="geometry" />
        </mxCell>
        <mxCell id="sMFrb6Sxw22Ko-RmrcBn-99" value="true" style="edgeStyle=orthogonalEdgeStyle;rounded=0;orthogonalLoop=1;jettySize=auto;html=1;" edge="1" parent="sMFrb6Sxw22Ko-RmrcBn-97" source="sMFrb6Sxw22Ko-RmrcBn-100">
          <mxGeometry relative="1" as="geometry">
            <mxPoint x="170" y="120" as="targetPoint" />
          </mxGeometry>
        </mxCell>
        <mxCell id="sMFrb6Sxw22Ko-RmrcBn-100" value="dict[each] &amp;gt; 호가[5]" style="rhombus;whiteSpace=wrap;html=1;" vertex="1" parent="sMFrb6Sxw22Ko-RmrcBn-97">
          <mxGeometry y="90" width="120" height="60" as="geometry" />
        </mxCell>
        <mxCell id="sMFrb6Sxw22Ko-RmrcBn-101" style="edgeStyle=orthogonalEdgeStyle;rounded=0;orthogonalLoop=1;jettySize=auto;html=1;" edge="1" parent="sMFrb6Sxw22Ko-RmrcBn-97" source="sMFrb6Sxw22Ko-RmrcBn-98" target="sMFrb6Sxw22Ko-RmrcBn-100">
          <mxGeometry relative="1" as="geometry">
            <mxPoint x="60" y="110.00000000000011" as="targetPoint" />
          </mxGeometry>
        </mxCell>
        <mxCell id="sMFrb6Sxw22Ko-RmrcBn-102" value="buy" style="shape=process;whiteSpace=wrap;html=1;backgroundOutline=1;fillColor=#dae8fc;strokeColor=#6c8ebf;" vertex="1" parent="sMFrb6Sxw22Ko-RmrcBn-97">
          <mxGeometry x="170" y="110" width="60" height="20" as="geometry" />
        </mxCell>
        <mxCell id="sMFrb6Sxw22Ko-RmrcBn-103" value="Vertical Container" style="swimlane;whiteSpace=wrap;html=1;" vertex="1" parent="sMFrb6Sxw22Ko-RmrcBn-51">
          <mxGeometry x="270" y="30" width="250" height="200" as="geometry" />
        </mxCell>
        <mxCell id="sMFrb6Sxw22Ko-RmrcBn-104" value="each(종목코드)" style="shape=parallelogram;perimeter=parallelogramPerimeter;whiteSpace=wrap;html=1;fixedSize=1;size=10;fillColor=#fff2cc;strokeColor=#d6b656;" vertex="1" parent="sMFrb6Sxw22Ko-RmrcBn-103">
          <mxGeometry x="10" y="30" width="100" height="30" as="geometry" />
        </mxCell>
        <mxCell id="sMFrb6Sxw22Ko-RmrcBn-105" value="true" style="edgeStyle=orthogonalEdgeStyle;rounded=0;orthogonalLoop=1;jettySize=auto;html=1;" edge="1" parent="sMFrb6Sxw22Ko-RmrcBn-103" source="sMFrb6Sxw22Ko-RmrcBn-106">
          <mxGeometry relative="1" as="geometry">
            <mxPoint x="170" y="120" as="targetPoint" />
          </mxGeometry>
        </mxCell>
        <mxCell id="sMFrb6Sxw22Ko-RmrcBn-106" value="dict[each](예상주가)&lt;br&gt;==호가[5](현재가)" style="rhombus;whiteSpace=wrap;html=1;" vertex="1" parent="sMFrb6Sxw22Ko-RmrcBn-103">
          <mxGeometry y="90" width="120" height="60" as="geometry" />
        </mxCell>
        <mxCell id="sMFrb6Sxw22Ko-RmrcBn-107" style="edgeStyle=orthogonalEdgeStyle;rounded=0;orthogonalLoop=1;jettySize=auto;html=1;" edge="1" parent="sMFrb6Sxw22Ko-RmrcBn-103" source="sMFrb6Sxw22Ko-RmrcBn-104" target="sMFrb6Sxw22Ko-RmrcBn-106">
          <mxGeometry relative="1" as="geometry">
            <mxPoint x="60" y="110.00000000000011" as="targetPoint" />
          </mxGeometry>
        </mxCell>
        <mxCell id="sMFrb6Sxw22Ko-RmrcBn-108" value="sell" style="shape=process;whiteSpace=wrap;html=1;backgroundOutline=1;fillColor=#dae8fc;strokeColor=#6c8ebf;" vertex="1" parent="sMFrb6Sxw22Ko-RmrcBn-103">
          <mxGeometry x="170" y="110" width="60" height="20" as="geometry" />
        </mxCell>
        <mxCell id="sMFrb6Sxw22Ko-RmrcBn-53" style="edgeStyle=orthogonalEdgeStyle;rounded=0;orthogonalLoop=1;jettySize=auto;html=1;entryX=0;entryY=0.5;entryDx=0;entryDy=0;" edge="1" parent="1" source="sMFrb6Sxw22Ko-RmrcBn-47" target="sMFrb6Sxw22Ko-RmrcBn-51">
          <mxGeometry relative="1" as="geometry">
            <mxPoint x="3380" y="213" as="targetPoint" />
          </mxGeometry>
        </mxCell>
        <mxCell id="sMFrb6Sxw22Ko-RmrcBn-144" value="dict에 추가&lt;br&gt;(key: 종목코드&lt;br&gt;value: 예상주가)" style="strokeWidth=2;html=1;shape=mxgraph.flowchart.database;whiteSpace=wrap;fillColor=#e1d5e7;strokeColor=#9673a6;" vertex="1" parent="1">
          <mxGeometry x="3750" y="58" width="100" height="75" as="geometry" />
        </mxCell>
        <mxCell id="sMFrb6Sxw22Ko-RmrcBn-146" value="봇 알고리즘" style="swimlane;whiteSpace=wrap;html=1;" vertex="1" parent="1">
          <mxGeometry x="2350" y="27.5" width="1580" height="465" as="geometry" />
        </mxCell>
      </root>
    </mxGraphModel>
  </diagram>
</mxfile>
